<?xml version="1.0" encoding="utf-8"?>
<!-- Generator: Adobe Illustrator 24.0.3, SVG Export Plug-In . SVG Version: 6.00 Build 0)  -->
<svg version="1.1" id="Camada_1" xmlns="http://www.w3.org/2000/svg" xmlns:xlink="http://www.w3.org/1999/xlink" x="0px" y="0px"
	 viewBox="0 0 380 212" style="enable-background:new 0 0 380 212;" xml:space="preserve">
<style type="text/css">
	.st0{fill:url(#SVGID_1_);}
</style>
<linearGradient id="SVGID_1_" gradientUnits="userSpaceOnUse" x1="-0.1432" y1="105.8512" x2="379.74" y2="105.8512">
	<stop  offset="0" style="stop-color:#C0392B"/>
	<stop  offset="1" style="stop-color:#E74C3D"/>
</linearGradient>
<path class="st0" d="M379.6,0.1c-26.1-0.3-45.1,19-45.5,45.3c-0.3,20.9,0.4,41.9-0.7,62.8c-1.7,33.3-29.1,57.8-62.2,56.8
	c-31.8-0.9-57.7-28-57.8-60.7c-0.1-31.2,0-62.5,0-93.7c0-3.4,0-6.7,0-10.1c-24.8-1.8-46.1,19.2-46.5,45.3c-0.3,19.7,0,39.4-0.1,59
	c-0.2,33.5-26.8,60.2-60,60.2c-33.1,0-60-26.9-60.1-60.2c-0.1-31.5,0-63.1,0-94.6c0-3.3,0-6.6,0-9.9C21.1-0.6,0.2,19.8,0,45
	c-0.2,19.4,0,38.7,0,58.1c0,44.8,26.1,84,66.8,100.5c41,16.6,86.5,6.9,117.9-25.4c2.1-2.1,2.9-5.5,4.4-8.6
	c32.3,35.5,68.5,49.3,111.6,38.2c43.1-11.1,68.1-40.9,79.1-85.4C379.8,122.8,379.6,28,379.6,0.1z"/>
</svg>
