<?xml version="1.0" encoding="utf-8"?>
<!-- Generator: Adobe Illustrator 24.0.3, SVG Export Plug-In . SVG Version: 6.00 Build 0)  -->
<svg version="1.1" id="Camada_1" xmlns="http://www.w3.org/2000/svg" xmlns:xlink="http://www.w3.org/1999/xlink" x="0px" y="0px"
	 viewBox="0 0 1034 357" style="enable-background:new 0 0 1034 357;" xml:space="preserve">
<style type="text/css">
	.st0{fill:url(#SVGID_1_);}
	.st1{fill:#FFFFFF;}
	.st2{fill:#7F7F7F;}
</style>
<g>
	<g>
		<linearGradient id="SVGID_1_" gradientUnits="userSpaceOnUse" x1="13.021" y1="140.6713" x2="1020.979" y2="140.6713">
			<stop  offset="0" style="stop-color:#C0392B"/>
			<stop  offset="1" style="stop-color:#E74C3D"/>
		</linearGradient>
		<path class="st0" d="M808.4,139.9c-19.3,46.7-53.4,73.9-104.3,71.9c-53.7-2.1-86.3-33.7-101-86.3c-15.8,54.4-49.6,86.8-105.7,86.3
			c-56.1-0.5-89.6-33.2-104.5-88.5c-10.9,44.5-35.9,74.3-79.1,85.4c-43.1,11.1-79.2-2.7-111.6-38.2c-1.6,3.1-2.4,6.5-4.4,8.6
			c-31.4,32.3-77,42-117.9,25.4C39.2,188,13.1,148.8,13.1,104c0-19.4-0.2-38.7,0-58.1C13.4,20.7,34.2,0.3,59.7,1.1
			c0,3.3,0,6.6,0,9.9c0,31.5,0,63.1,0,94.6c0.1,33.3,27,60.2,60.1,60.2c33.2,0,59.9-26.7,60-60.2c0.1-19.7-0.2-39.4,0.1-59
			c0.4-26.1,21.7-47,46.5-45.3c0,3.3,0,6.7,0,10.1c0,31.2-0.1,62.5,0,93.7c0.1,32.7,26,59.8,57.8,60.7c33.2,1,60.6-23.5,62.2-56.8
			c1-20.9,0.4-41.8,0.7-62.8C347.6,20,366.6,0.7,392.7,1c0,27.9,0,55.8,0,83.7C411.2,31.2,446.6-1,504.3,2
			c52.4,2.7,84.2,34.4,98.6,86.2c16.1-55.4,51-87.7,108.2-86.3c53.1,1.3,85.5,32.8,100.7,83.7c19.3-73.7,90.3-96.9,141.5-77.3
			c52.9,20.3,80.9,79.8,61.5,133.7c-11.5,31.8-33.7,53.7-65.8,64.5c-31.8,10.8-62.1,5.7-92.5-12.2c0,15.4,0.2,28.9,0,42.4
			c-0.5,24.9-19.7,43.6-45.7,43.5c0-46.5,0-93.1,0-139.7C809.9,140.4,809.2,140.1,808.4,139.9z M915.7,166
			c32.8,0.1,59.9-26.8,59.8-59.3c-0.2-32.3-26.8-59-59.1-59.1c-32.9-0.1-60,26.8-59.8,59.3C856.7,139.2,883.4,165.9,915.7,166z
			 M766.7,106.5c-0.1-32.7-26.3-58.9-58.9-58.8c-32.3,0.1-59.1,26.7-59.3,59c-0.2,32.5,27.1,59.4,59.9,59.3
			C740.8,165.8,766.7,139.3,766.7,106.5z M497.9,47.7c-32.3,0.1-58.6,26.8-58.5,59.2c0.1,32.9,26.7,59.2,59.7,58.9
			c32.2-0.3,58.5-27.2,58.1-59.6C556.9,73.8,530.3,47.6,497.9,47.7z"/>
		<path class="st1" d="M915.7,166c-32.3-0.1-59-26.8-59.2-59.1c-0.2-32.5,26.9-59.4,59.8-59.3c32.3,0.1,59,26.7,59.1,59.1
			C975.6,139.2,948.5,166.1,915.7,166z"/>
		<path class="st1" d="M766.7,106.5c0.1,32.8-25.9,59.3-58.3,59.4c-32.8,0.1-60.1-26.8-59.9-59.3c0.2-32.2,27-58.9,59.3-59
			C740.3,47.6,766.6,73.8,766.7,106.5z"/>
		<path class="st1" d="M497.9,47.7c32.4-0.1,59,26.1,59.3,58.5c0.3,32.4-25.9,59.3-58.1,59.6c-33,0.3-59.7-26-59.7-58.9
			C439.3,74.5,465.6,47.9,497.9,47.7z"/>
	</g>
	<g>
		<path class="st2" d="M85.4,274.1C85.7,295.9,74,318,47.3,318c-9.4,0-20.6,0-30,0v-86.3c9.4,0,20.6,0,30,0
			C73.4,231.7,85.1,252.8,85.4,274.1z M31.6,302.4h15.7c17.3,0,24.2-14.3,23.9-28.4c-0.3-13.4-7.3-26.9-23.9-26.9H31.6V302.4z"/>
		<path class="st2" d="M106.2,257.2l1,7c4.1-7.5,9.7-8.6,15.1-8.6c5.6,0,10.9,2.5,13.8,5.8l-6,13.1c-2.7-2.6-5.2-3.9-9.6-3.9
			c-7,0-13.4,4.2-13.4,15.4V318H93.9v-60.8H106.2z"/>
		<path class="st2" d="M183.8,257.2h12.8V318H184l-0.7-8.9c-3.1,7.2-11.4,10.6-17.4,10.7c-15.9,0.1-27.7-11-27.7-32.3
			c0-21,12.3-31.9,28-31.8c7.2,0,14.1,3.8,17.1,9.9L183.8,257.2z M151.6,287.6c0,11.6,7.1,18.5,15.9,18.5c20.9,0,20.9-36.9,0-36.9
			C158.7,269.2,151.6,276,151.6,287.6z"/>
		<path class="st2" d="M250,251l9.8,8.4l-6,8.6c4.1,5.3,5.7,11.3,5.7,18c0,7.5-2.5,18.1-11.3,22.7c8.9,5.1,11.1,12.3,11.1,20.1
			c0,16.8-11.3,27.1-26.9,27.1c-15.6,0-27.2-10.7-27.2-27.1h13.2c0,7.9,6.4,13.1,14.1,13.1s13.6-4.7,13.6-13.1s-7-12.2-13.6-12.2
			c-16.8,0-27.2-11.6-27.2-30.6s12.2-30.8,27.2-30.8c4.2,0,8.6,0.6,12.3,3.5L250,251z M218.3,286.1c0,10.6,6.3,16.9,14.1,16.9
			c7.6,0,13.9-6.4,13.9-16.9s-6.3-17.1-13.9-17.1C224.6,268.9,218.3,275.5,218.3,286.1z"/>
		<path class="st2" d="M321.4,287.7c0,17.5-10.6,31.7-28,31.7s-27.9-14.2-27.9-31.7c0-17.4,10.7-31.7,27.8-31.7
			S321.4,270.3,321.4,287.7z M278.7,287.7c0,9.2,4.9,17.9,14.6,17.9s14.6-8.6,14.6-17.9c0-9.1-5.7-18-14.6-18
			C283.8,269.7,278.7,278.5,278.7,287.7z"/>
		<path class="st2" d="M370.1,318v-31.8c0-9.2-4.5-16.3-13-16.3c-8.2,0-13.7,7.8-13.7,17V318h-13.2v-60.9h11.9l0.9,8.3
			c5.4-6,10.9-9.1,17.7-9.1c12.6,0,22.8,10.7,22.8,29.8V318H370.1z"/>
		<path class="st2" d="M429.9,273.4c-3.8-4.1-8.2-5.4-13.3-5.4c-6.3,0-9.8,2.2-9.8,6c0,3.9,3.2,6.2,10,6.7c10.1,0.7,23,3.3,23,19.5
			c0,10.7-7.7,20-23.1,20c-8.5,0-17-1.6-24.8-10.9l6.5-10.7c3.8,4.8,12.5,8.4,18.5,8.5c5,0.1,9.7-2.8,9.7-7.3
			c0-4.2-3.1-5.9-10.7-6.4c-10.1-0.9-22.2-5.1-22.2-18.9c0-14.1,12.9-19,22.7-19c8.4,0,14.7,1.9,20.9,8L429.9,273.4z"/>
	</g>
</g>
</svg>
